<svg width="41" height="40" viewBox="0 0 41 40" fill="none" xmlns="http://www.w3.org/2000/svg">
<g clip-path="url(#clip0_65_1287)">
<path d="M3.1665 7.06995C5.379 6.14495 8.5515 5.14745 11.6365 4.83745C14.9615 4.50245 17.7815 4.99495 19.4165 6.71745V31.0824C17.079 29.7574 14.1165 29.5749 11.384 29.8499C8.434 30.1499 5.459 31.0024 3.1665 31.8774V7.06995ZM21.9165 6.71745C23.5515 4.99495 26.3715 4.50245 29.6965 4.83745C32.7815 5.14745 35.954 6.14495 38.1665 7.06995V31.8774C35.8715 31.0024 32.899 30.1474 29.949 29.8524C27.214 29.5749 24.254 29.7549 21.9165 31.0824V6.71745ZM20.6665 4.45745C18.204 2.33995 14.634 2.02495 11.384 2.34995C7.599 2.73245 3.779 4.02995 1.399 5.11245C1.18063 5.21177 0.995442 5.37183 0.865556 5.57353C0.735671 5.77523 0.66657 6.01004 0.666504 6.24995V33.7499C0.666562 33.9591 0.719097 34.1649 0.819297 34.3485C0.919497 34.532 1.06416 34.6875 1.24003 34.8007C1.4159 34.9139 1.61737 34.9812 1.82596 34.9963C2.03456 35.0115 2.24362 34.974 2.434 34.8874C4.639 33.8874 8.1915 32.6849 11.634 32.3374C15.1565 31.9824 18.109 32.5549 19.6915 34.5299C19.8086 34.6759 19.957 34.7938 20.1258 34.8747C20.2946 34.9557 20.4793 34.9977 20.6665 34.9977C20.8537 34.9977 21.0385 34.9557 21.2072 34.8747C21.376 34.7938 21.5244 34.6759 21.6415 34.5299C23.224 32.5549 26.1765 31.9824 29.6965 32.3374C33.1415 32.6849 36.6965 33.8874 38.899 34.8874C39.0894 34.974 39.2985 35.0115 39.507 34.9963C39.7156 34.9812 39.9171 34.9139 40.093 34.8007C40.2688 34.6875 40.4135 34.532 40.5137 34.3485C40.6139 34.1649 40.6664 33.9591 40.6665 33.7499V6.24995C40.6664 6.01004 40.5973 5.77523 40.4674 5.57353C40.3376 5.37183 40.1524 5.21177 39.934 5.11245C37.554 4.02995 33.734 2.73245 29.949 2.34995C26.699 2.02245 23.129 2.33995 20.6665 4.45745Z" fill="black"/>
</g>
<defs>
<clipPath id="clip0_65_1287">
<rect width="40" height="40" fill="white" transform="translate(0.666504)"/>
</clipPath>
</defs>
</svg>
