<svg width="41" height="40" viewBox="0 0 41 40" fill="none" xmlns="http://www.w3.org/2000/svg">
<path d="M19.9335 10.25C19.97 10.175 20.0269 10.1118 20.0977 10.0676C20.1684 10.0234 20.2501 10 20.3335 10C20.4169 10 20.4986 10.0234 20.5694 10.0676C20.6401 10.1118 20.697 10.175 20.7335 10.25L22.3185 13.4625C22.3506 13.5272 22.3978 13.5833 22.4561 13.6259C22.5144 13.6686 22.5821 13.6965 22.6535 13.7075L26.2035 14.2225C26.566 14.275 26.7135 14.7225 26.4485 14.98L23.8835 17.4825C23.8321 17.5333 23.7937 17.5957 23.7715 17.6644C23.7493 17.7332 23.744 17.8063 23.756 17.8775L24.361 21.4125C24.3746 21.4941 24.3651 21.5779 24.3337 21.6545C24.3023 21.731 24.2502 21.7973 24.1832 21.8459C24.1162 21.8944 24.037 21.9234 23.9545 21.9294C23.8719 21.9354 23.7893 21.9183 23.716 21.88L20.541 20.21C20.4772 20.1771 20.4065 20.16 20.3348 20.16C20.263 20.16 20.1923 20.1771 20.1285 20.21L16.9535 21.88C16.8802 21.9176 16.798 21.9342 16.7158 21.9278C16.6337 21.9215 16.555 21.8924 16.4884 21.844C16.4218 21.7955 16.3699 21.7295 16.3386 21.6533C16.3073 21.5772 16.2977 21.4938 16.311 21.4125L16.916 17.8775C16.9283 17.8065 16.9234 17.7335 16.9017 17.6648C16.8799 17.596 16.842 17.5335 16.791 17.4825L14.216 14.98C14.157 14.9221 14.1153 14.8489 14.0956 14.7686C14.0759 14.6883 14.0789 14.6042 14.1044 14.5255C14.1298 14.4469 14.1766 14.3769 14.2396 14.3233C14.3026 14.2698 14.3793 14.2349 14.461 14.2225L18.011 13.7075C18.0824 13.6965 18.1501 13.6686 18.2084 13.6259C18.2667 13.5833 18.3139 13.5272 18.346 13.4625L19.9335 10.25Z" fill="black"/>
<path d="M5.3335 5C5.3335 3.67392 5.86028 2.40215 6.79796 1.46447C7.73564 0.526784 9.00741 0 10.3335 0L30.3335 0C31.6596 0 32.9313 0.526784 33.869 1.46447C34.8067 2.40215 35.3335 3.67392 35.3335 5V38.75C35.3334 38.9761 35.2719 39.1979 35.1557 39.3919C35.0395 39.5858 34.8728 39.7446 34.6735 39.8513C34.4742 39.9581 34.2496 40.0087 34.0238 39.9979C33.7979 39.9871 33.5792 39.9153 33.391 39.79L20.3335 32.7525L7.276 39.79C7.08776 39.9153 6.86907 39.9871 6.64322 39.9979C6.41738 40.0087 6.19283 39.9581 5.99349 39.8513C5.79416 39.7446 5.62751 39.5858 5.51128 39.3919C5.39506 39.1979 5.33361 38.9761 5.3335 38.75V5ZM10.3335 2.5C9.67045 2.5 9.03457 2.76339 8.56573 3.23223C8.09689 3.70107 7.8335 4.33696 7.8335 5V36.415L19.641 30.21C19.8461 30.0735 20.0871 30.0006 20.3335 30.0006C20.5799 30.0006 20.8208 30.0735 21.026 30.21L32.8335 36.415V5C32.8335 4.33696 32.5701 3.70107 32.1013 3.23223C31.6324 2.76339 30.9965 2.5 30.3335 2.5H10.3335Z" fill="black"/>
</svg>
