<svg width="699" height="175" viewBox="0 0 699 175" fill="none" xmlns="http://www.w3.org/2000/svg">
<circle cx="241.042" cy="3.96985" r="3.9701" fill="#D9D9D9"/>
<circle cx="241.042" cy="27.7907" r="3.9701" fill="#D9D9D9"/>
<circle cx="241.042" cy="51.611" r="3.9701" fill="#D9D9D9"/>
<circle cx="241.042" cy="75.4318" r="3.9701" fill="#D9D9D9"/>
<circle cx="241.042" cy="99.2521" r="3.9701" fill="#D9D9D9"/>
<circle cx="241.042" cy="123.073" r="3.9701" fill="#D9D9D9"/>
<circle cx="241.042" cy="146.894" r="3.9701" fill="#D9D9D9"/>
<circle cx="241.042" cy="170.714" r="3.9701" fill="#D9D9D9"/>
<circle cx="264.861" cy="3.96985" r="3.9701" fill="#D9D9D9"/>
<circle cx="264.861" cy="27.7907" r="3.9701" fill="#D9D9D9"/>
<circle cx="264.861" cy="51.611" r="3.9701" fill="#D9D9D9"/>
<circle cx="264.861" cy="75.4318" r="3.9701" fill="#D9D9D9"/>
<circle cx="264.861" cy="99.2521" r="3.9701" fill="#D9D9D9"/>
<circle cx="264.861" cy="123.073" r="3.9701" fill="#D9D9D9"/>
<circle cx="264.861" cy="146.894" r="3.9701" fill="#D9D9D9"/>
<circle cx="264.861" cy="170.714" r="3.9701" fill="#D9D9D9"/>
<circle cx="288.683" cy="3.96985" r="3.9701" fill="#D9D9D9"/>
<circle cx="288.683" cy="27.7907" r="3.9701" fill="#D9D9D9"/>
<circle cx="288.683" cy="51.611" r="3.9701" fill="#D9D9D9"/>
<circle cx="288.683" cy="75.4318" r="3.9701" fill="#D9D9D9"/>
<circle cx="288.683" cy="99.2521" r="3.9701" fill="#D9D9D9"/>
<circle cx="288.683" cy="123.073" r="3.9701" fill="#D9D9D9"/>
<circle cx="288.683" cy="146.894" r="3.9701" fill="#D9D9D9"/>
<circle cx="288.683" cy="170.714" r="3.9701" fill="#D9D9D9"/>
<circle cx="312.504" cy="3.96985" r="3.9701" fill="#D9D9D9"/>
<circle cx="312.504" cy="27.7907" r="3.9701" fill="#D9D9D9"/>
<circle cx="312.504" cy="51.611" r="3.9701" fill="#D9D9D9"/>
<circle cx="312.504" cy="75.4318" r="3.9701" fill="#D9D9D9"/>
<circle cx="312.504" cy="99.2521" r="3.9701" fill="#D9D9D9"/>
<circle cx="312.504" cy="123.073" r="3.9701" fill="#D9D9D9"/>
<circle cx="312.504" cy="146.894" r="3.9701" fill="#D9D9D9"/>
<circle cx="312.504" cy="170.714" r="3.9701" fill="#D9D9D9"/>
<circle cx="336.323" cy="3.96985" r="3.9701" fill="#D9D9D9"/>
<circle cx="336.323" cy="27.7907" r="3.9701" fill="#D9D9D9"/>
<circle cx="336.323" cy="51.611" r="3.9701" fill="#D9D9D9"/>
<circle cx="336.323" cy="75.4318" r="3.9701" fill="#D9D9D9"/>
<circle cx="336.323" cy="99.2521" r="3.9701" fill="#D9D9D9"/>
<circle cx="336.323" cy="123.073" r="3.9701" fill="#D9D9D9"/>
<circle cx="336.323" cy="146.894" r="3.9701" fill="#D9D9D9"/>
<circle cx="336.323" cy="170.714" r="3.9701" fill="#D9D9D9"/>
<circle cx="360.145" cy="3.96985" r="3.9701" fill="#D9D9D9"/>
<circle cx="360.145" cy="27.7907" r="3.9701" fill="#D9D9D9"/>
<circle cx="360.145" cy="51.611" r="3.9701" fill="#D9D9D9"/>
<circle cx="360.145" cy="75.4318" r="3.9701" fill="#D9D9D9"/>
<circle cx="360.145" cy="99.2521" r="3.9701" fill="#D9D9D9"/>
<circle cx="360.145" cy="123.073" r="3.9701" fill="#D9D9D9"/>
<circle cx="360.145" cy="146.894" r="3.9701" fill="#D9D9D9"/>
<circle cx="360.145" cy="170.714" r="3.9701" fill="#D9D9D9"/>
<circle cx="383.966" cy="3.96985" r="3.9701" fill="#D9D9D9"/>
<circle cx="383.966" cy="27.7907" r="3.9701" fill="#D9D9D9"/>
<circle cx="383.966" cy="51.611" r="3.9701" fill="#D9D9D9"/>
<circle cx="383.966" cy="75.4318" r="3.9701" fill="#D9D9D9"/>
<circle cx="383.966" cy="99.2521" r="3.9701" fill="#D9D9D9"/>
<circle cx="383.966" cy="123.073" r="3.9701" fill="#D9D9D9"/>
<circle cx="383.966" cy="146.894" r="3.9701" fill="#D9D9D9"/>
<circle cx="383.966" cy="170.714" r="3.9701" fill="#D9D9D9"/>
<circle cx="407.785" cy="3.96985" r="3.9701" fill="#D9D9D9"/>
<circle cx="407.785" cy="27.7907" r="3.9701" fill="#D9D9D9"/>
<circle cx="407.785" cy="51.611" r="3.9701" fill="#D9D9D9"/>
<circle cx="407.785" cy="75.4318" r="3.9701" fill="#D9D9D9"/>
<circle cx="407.785" cy="99.2521" r="3.9701" fill="#D9D9D9"/>
<circle cx="407.785" cy="123.073" r="3.9701" fill="#D9D9D9"/>
<circle cx="407.785" cy="146.894" r="3.9701" fill="#D9D9D9"/>
<circle cx="407.785" cy="170.714" r="3.9701" fill="#D9D9D9"/>
<circle cx="431.606" cy="3.96985" r="3.9701" fill="#D9D9D9"/>
<circle cx="431.606" cy="27.7907" r="3.9701" fill="#D9D9D9"/>
<circle cx="431.606" cy="51.611" r="3.9701" fill="#D9D9D9"/>
<circle cx="431.606" cy="75.4318" r="3.9701" fill="#D9D9D9"/>
<circle cx="431.606" cy="99.2521" r="3.9701" fill="#D9D9D9"/>
<circle cx="431.606" cy="123.073" r="3.9701" fill="#D9D9D9"/>
<circle cx="431.606" cy="146.894" r="3.9701" fill="#D9D9D9"/>
<circle cx="431.606" cy="170.714" r="3.9701" fill="#D9D9D9"/>
<circle cx="455.428" cy="3.96985" r="3.9701" fill="#D9D9D9"/>
<circle cx="455.428" cy="27.7907" r="3.9701" fill="#D9D9D9"/>
<circle cx="455.428" cy="51.611" r="3.9701" fill="#D9D9D9"/>
<circle cx="455.428" cy="75.4318" r="3.9701" fill="#D9D9D9"/>
<circle cx="455.428" cy="99.2521" r="3.9701" fill="#D9D9D9"/>
<circle cx="455.428" cy="123.073" r="3.9701" fill="#D9D9D9"/>
<circle cx="455.428" cy="146.894" r="3.9701" fill="#D9D9D9"/>
<circle cx="455.428" cy="170.714" r="3.9701" fill="#D9D9D9"/>
<circle cx="480.381" cy="3.96985" r="3.9701" fill="#D9D9D9"/>
<circle cx="480.381" cy="27.7907" r="3.9701" fill="#D9D9D9"/>
<circle cx="480.381" cy="51.611" r="3.9701" fill="#D9D9D9"/>
<circle cx="480.381" cy="75.4318" r="3.9701" fill="#D9D9D9"/>
<circle cx="480.381" cy="99.2523" r="3.9701" fill="#D9D9D9"/>
<circle cx="480.381" cy="123.073" r="3.9701" fill="#D9D9D9"/>
<circle cx="480.381" cy="146.894" r="3.9701" fill="#D9D9D9"/>
<circle cx="480.381" cy="170.714" r="3.9701" fill="#D9D9D9"/>
<circle cx="504.203" cy="3.96985" r="3.9701" fill="#D9D9D9"/>
<circle cx="504.203" cy="27.7907" r="3.9701" fill="#D9D9D9"/>
<circle cx="504.203" cy="51.611" r="3.9701" fill="#D9D9D9"/>
<circle cx="504.203" cy="75.4318" r="3.9701" fill="#D9D9D9"/>
<circle cx="504.203" cy="99.2523" r="3.9701" fill="#D9D9D9"/>
<circle cx="504.203" cy="123.073" r="3.9701" fill="#D9D9D9"/>
<circle cx="504.203" cy="146.894" r="3.9701" fill="#D9D9D9"/>
<circle cx="504.203" cy="170.714" r="3.9701" fill="#D9D9D9"/>
<circle cx="528.022" cy="3.96985" r="3.9701" fill="#D9D9D9"/>
<circle cx="528.022" cy="27.7907" r="3.9701" fill="#D9D9D9"/>
<circle cx="528.022" cy="51.611" r="3.9701" fill="#D9D9D9"/>
<circle cx="528.022" cy="75.4318" r="3.9701" fill="#D9D9D9"/>
<circle cx="528.022" cy="99.2523" r="3.9701" fill="#D9D9D9"/>
<circle cx="528.022" cy="123.073" r="3.9701" fill="#D9D9D9"/>
<circle cx="528.022" cy="146.893" r="3.9701" fill="#D9D9D9"/>
<circle cx="528.022" cy="170.714" r="3.9701" fill="#D9D9D9"/>
<circle cx="551.843" cy="3.96985" r="3.9701" fill="#D9D9D9"/>
<circle cx="551.843" cy="27.7907" r="3.9701" fill="#D9D9D9"/>
<circle cx="551.843" cy="51.611" r="3.9701" fill="#D9D9D9"/>
<circle cx="551.843" cy="75.4318" r="3.9701" fill="#D9D9D9"/>
<circle cx="551.843" cy="99.2523" r="3.9701" fill="#D9D9D9"/>
<circle cx="551.843" cy="123.073" r="3.9701" fill="#D9D9D9"/>
<circle cx="551.843" cy="146.894" r="3.9701" fill="#D9D9D9"/>
<circle cx="551.843" cy="170.714" r="3.9701" fill="#D9D9D9"/>
<circle cx="575.664" cy="3.96985" r="3.9701" fill="#D9D9D9"/>
<circle cx="575.664" cy="27.7907" r="3.9701" fill="#D9D9D9"/>
<circle cx="575.664" cy="51.611" r="3.9701" fill="#D9D9D9"/>
<circle cx="575.664" cy="75.4318" r="3.9701" fill="#D9D9D9"/>
<circle cx="575.664" cy="99.2523" r="3.9701" fill="#D9D9D9"/>
<circle cx="575.664" cy="123.073" r="3.9701" fill="#D9D9D9"/>
<circle cx="575.664" cy="146.894" r="3.9701" fill="#D9D9D9"/>
<circle cx="575.664" cy="170.714" r="3.9701" fill="#D9D9D9"/>
<circle cx="599.484" cy="3.96985" r="3.9701" fill="#D9D9D9"/>
<circle cx="599.484" cy="27.7907" r="3.9701" fill="#D9D9D9"/>
<circle cx="599.484" cy="51.611" r="3.9701" fill="#D9D9D9"/>
<circle cx="599.484" cy="75.4318" r="3.9701" fill="#D9D9D9"/>
<circle cx="599.484" cy="99.2523" r="3.9701" fill="#D9D9D9"/>
<circle cx="599.484" cy="123.073" r="3.9701" fill="#D9D9D9"/>
<circle cx="599.484" cy="146.894" r="3.9701" fill="#D9D9D9"/>
<circle cx="599.484" cy="170.714" r="3.9701" fill="#D9D9D9"/>
<circle cx="623.305" cy="3.96985" r="3.9701" fill="#D9D9D9"/>
<circle cx="623.305" cy="27.7907" r="3.9701" fill="#D9D9D9"/>
<circle cx="623.305" cy="51.611" r="3.9701" fill="#D9D9D9"/>
<circle cx="623.305" cy="75.4318" r="3.9701" fill="#D9D9D9"/>
<circle cx="623.305" cy="99.2523" r="3.9701" fill="#D9D9D9"/>
<circle cx="623.305" cy="123.073" r="3.9701" fill="#D9D9D9"/>
<circle cx="623.305" cy="146.894" r="3.9701" fill="#D9D9D9"/>
<circle cx="623.305" cy="170.714" r="3.9701" fill="#D9D9D9"/>
<circle cx="647.124" cy="3.96985" r="3.9701" fill="#D9D9D9"/>
<circle cx="647.124" cy="27.7907" r="3.9701" fill="#D9D9D9"/>
<circle cx="647.124" cy="51.611" r="3.9701" fill="#D9D9D9"/>
<circle cx="647.124" cy="75.4318" r="3.9701" fill="#D9D9D9"/>
<circle cx="647.124" cy="99.2523" r="3.9701" fill="#D9D9D9"/>
<circle cx="647.124" cy="123.073" r="3.9701" fill="#D9D9D9"/>
<circle cx="647.124" cy="146.893" r="3.9701" fill="#D9D9D9"/>
<circle cx="647.124" cy="170.714" r="3.9701" fill="#D9D9D9"/>
<circle cx="670.946" cy="3.96985" r="3.9701" fill="#D9D9D9"/>
<circle cx="670.946" cy="27.7907" r="3.9701" fill="#D9D9D9"/>
<circle cx="670.946" cy="51.611" r="3.9701" fill="#D9D9D9"/>
<circle cx="670.946" cy="75.4318" r="3.9701" fill="#D9D9D9"/>
<circle cx="670.946" cy="99.2523" r="3.9701" fill="#D9D9D9"/>
<circle cx="670.946" cy="123.073" r="3.9701" fill="#D9D9D9"/>
<circle cx="670.946" cy="146.894" r="3.9701" fill="#D9D9D9"/>
<circle cx="670.946" cy="170.714" r="3.9701" fill="#D9D9D9"/>
<circle cx="694.767" cy="3.96985" r="3.9701" fill="#D9D9D9"/>
<circle cx="694.767" cy="27.7907" r="3.9701" fill="#D9D9D9"/>
<circle cx="694.767" cy="51.611" r="3.9701" fill="#D9D9D9"/>
<circle cx="694.767" cy="75.4318" r="3.9701" fill="#D9D9D9"/>
<circle cx="694.767" cy="99.2523" r="3.9701" fill="#D9D9D9"/>
<circle cx="694.767" cy="123.073" r="3.9701" fill="#D9D9D9"/>
<circle cx="694.767" cy="146.894" r="3.9701" fill="#D9D9D9"/>
<circle cx="694.767" cy="170.714" r="3.9701" fill="#D9D9D9"/>
<circle cx="3.9701" cy="3.96998" r="3.9701" fill="#D9D9D9"/>
<circle cx="3.9701" cy="27.7907" r="3.9701" fill="#D9D9D9"/>
<circle cx="3.9701" cy="51.611" r="3.9701" fill="#D9D9D9"/>
<circle cx="3.9701" cy="75.4318" r="3.9701" fill="#D9D9D9"/>
<circle cx="3.9701" cy="99.2523" r="3.9701" fill="#D9D9D9"/>
<circle cx="3.9701" cy="123.073" r="3.9701" fill="#D9D9D9"/>
<circle cx="3.9701" cy="146.894" r="3.9701" fill="#D9D9D9"/>
<circle cx="3.9701" cy="170.714" r="3.9701" fill="#D9D9D9"/>
<circle cx="27.7894" cy="3.96985" r="3.9701" fill="#D9D9D9"/>
<circle cx="27.7894" cy="27.7907" r="3.9701" fill="#D9D9D9"/>
<circle cx="27.7894" cy="51.611" r="3.9701" fill="#D9D9D9"/>
<circle cx="27.7894" cy="75.4318" r="3.9701" fill="#D9D9D9"/>
<circle cx="27.7894" cy="99.2523" r="3.9701" fill="#D9D9D9"/>
<circle cx="27.7894" cy="123.073" r="3.9701" fill="#D9D9D9"/>
<circle cx="27.7894" cy="146.894" r="3.9701" fill="#D9D9D9"/>
<circle cx="27.7894" cy="170.714" r="3.9701" fill="#D9D9D9"/>
<circle cx="51.611" cy="3.96985" r="3.9701" fill="#D9D9D9"/>
<circle cx="51.611" cy="27.7907" r="3.9701" fill="#D9D9D9"/>
<circle cx="51.611" cy="51.611" r="3.9701" fill="#D9D9D9"/>
<circle cx="51.611" cy="75.4318" r="3.9701" fill="#D9D9D9"/>
<circle cx="51.611" cy="99.2523" r="3.9701" fill="#D9D9D9"/>
<circle cx="51.611" cy="123.073" r="3.9701" fill="#D9D9D9"/>
<circle cx="51.611" cy="146.894" r="3.9701" fill="#D9D9D9"/>
<circle cx="51.611" cy="170.714" r="3.9701" fill="#D9D9D9"/>
<circle cx="75.432" cy="3.96985" r="3.9701" fill="#D9D9D9"/>
<circle cx="75.432" cy="27.7907" r="3.9701" fill="#D9D9D9"/>
<circle cx="75.432" cy="51.611" r="3.9701" fill="#D9D9D9"/>
<circle cx="75.432" cy="75.4318" r="3.9701" fill="#D9D9D9"/>
<circle cx="75.432" cy="99.2523" r="3.9701" fill="#D9D9D9"/>
<circle cx="75.432" cy="123.073" r="3.9701" fill="#D9D9D9"/>
<circle cx="75.432" cy="146.894" r="3.9701" fill="#D9D9D9"/>
<circle cx="75.432" cy="170.714" r="3.9701" fill="#D9D9D9"/>
<circle cx="99.2514" cy="3.96985" r="3.9701" fill="#D9D9D9"/>
<circle cx="99.2514" cy="27.7907" r="3.9701" fill="#D9D9D9"/>
<circle cx="99.2514" cy="51.611" r="3.9701" fill="#D9D9D9"/>
<circle cx="99.2514" cy="75.4318" r="3.9701" fill="#D9D9D9"/>
<circle cx="99.2514" cy="99.2523" r="3.9701" fill="#D9D9D9"/>
<circle cx="99.2514" cy="123.073" r="3.9701" fill="#D9D9D9"/>
<circle cx="99.2514" cy="146.894" r="3.9701" fill="#D9D9D9"/>
<circle cx="99.2514" cy="170.714" r="3.9701" fill="#D9D9D9"/>
<circle cx="123.073" cy="3.96985" r="3.9701" fill="#D9D9D9"/>
<circle cx="123.073" cy="27.7907" r="3.9701" fill="#D9D9D9"/>
<circle cx="123.073" cy="51.611" r="3.9701" fill="#D9D9D9"/>
<circle cx="123.073" cy="75.4318" r="3.9701" fill="#D9D9D9"/>
<circle cx="123.073" cy="99.2523" r="3.9701" fill="#D9D9D9"/>
<circle cx="123.073" cy="123.073" r="3.9701" fill="#D9D9D9"/>
<circle cx="123.073" cy="146.894" r="3.9701" fill="#D9D9D9"/>
<circle cx="123.073" cy="170.714" r="3.9701" fill="#D9D9D9"/>
<circle cx="146.894" cy="3.96985" r="3.9701" fill="#D9D9D9"/>
<circle cx="146.894" cy="27.7907" r="3.9701" fill="#D9D9D9"/>
<circle cx="146.894" cy="51.611" r="3.9701" fill="#D9D9D9"/>
<circle cx="146.894" cy="75.4318" r="3.9701" fill="#D9D9D9"/>
<circle cx="146.894" cy="99.2523" r="3.9701" fill="#D9D9D9"/>
<circle cx="146.894" cy="123.073" r="3.9701" fill="#D9D9D9"/>
<circle cx="146.894" cy="146.894" r="3.9701" fill="#D9D9D9"/>
<circle cx="146.894" cy="170.714" r="3.9701" fill="#D9D9D9"/>
<circle cx="170.714" cy="3.96985" r="3.9701" fill="#D9D9D9"/>
<circle cx="170.714" cy="27.7907" r="3.9701" fill="#D9D9D9"/>
<circle cx="170.714" cy="51.611" r="3.9701" fill="#D9D9D9"/>
<circle cx="170.714" cy="75.4318" r="3.9701" fill="#D9D9D9"/>
<circle cx="170.714" cy="99.2523" r="3.9701" fill="#D9D9D9"/>
<circle cx="170.714" cy="123.073" r="3.9701" fill="#D9D9D9"/>
<circle cx="170.714" cy="146.894" r="3.9701" fill="#D9D9D9"/>
<circle cx="170.714" cy="170.714" r="3.9701" fill="#D9D9D9"/>
<circle cx="194.535" cy="3.96985" r="3.9701" fill="#D9D9D9"/>
<circle cx="194.535" cy="27.7907" r="3.9701" fill="#D9D9D9"/>
<circle cx="194.535" cy="51.611" r="3.9701" fill="#D9D9D9"/>
<circle cx="194.535" cy="75.4318" r="3.9701" fill="#D9D9D9"/>
<circle cx="194.535" cy="99.2523" r="3.9701" fill="#D9D9D9"/>
<circle cx="194.535" cy="123.073" r="3.9701" fill="#D9D9D9"/>
<circle cx="194.535" cy="146.894" r="3.9701" fill="#D9D9D9"/>
<circle cx="194.535" cy="170.714" r="3.9701" fill="#D9D9D9"/>
<circle cx="218.356" cy="3.96985" r="3.9701" fill="#D9D9D9"/>
<circle cx="218.356" cy="27.7907" r="3.9701" fill="#D9D9D9"/>
<circle cx="218.356" cy="51.611" r="3.9701" fill="#D9D9D9"/>
<circle cx="218.356" cy="75.4318" r="3.9701" fill="#D9D9D9"/>
<circle cx="218.356" cy="99.2523" r="3.9701" fill="#D9D9D9"/>
<circle cx="218.356" cy="123.073" r="3.9701" fill="#D9D9D9"/>
<circle cx="218.356" cy="146.894" r="3.9701" fill="#D9D9D9"/>
<circle cx="218.356" cy="170.714" r="3.9701" fill="#D9D9D9"/>
</svg>
