<svg width="455" height="166" viewBox="0 0 455 166" fill="none" xmlns="http://www.w3.org/2000/svg">
<ellipse cx="238.006" cy="3.77273" rx="3.93864" ry="3.77273" fill="#F2F2F2"/>
<ellipse cx="238.006" cy="26.4092" rx="3.93864" ry="3.77273" fill="#F2F2F2"/>
<ellipse cx="238.006" cy="49.0454" rx="3.93864" ry="3.77273" fill="#F2F2F2"/>
<ellipse cx="238.006" cy="71.6819" rx="3.93864" ry="3.77273" fill="#F2F2F2"/>
<ellipse cx="238.006" cy="94.3181" rx="3.93864" ry="3.77273" fill="#F2F2F2"/>
<ellipse cx="238.006" cy="116.955" rx="3.93864" ry="3.77273" fill="#F2F2F2"/>
<ellipse cx="238.006" cy="139.591" rx="3.93864" ry="3.77273" fill="#F2F2F2"/>
<ellipse cx="238.006" cy="162.227" rx="3.93864" ry="3.77273" fill="#F2F2F2"/>
<ellipse cx="261.637" cy="3.77273" rx="3.93864" ry="3.77273" fill="#F2F2F2"/>
<ellipse cx="261.637" cy="26.4092" rx="3.93864" ry="3.77273" fill="#F2F2F2"/>
<ellipse cx="261.637" cy="49.0454" rx="3.93864" ry="3.77273" fill="#F2F2F2"/>
<ellipse cx="261.637" cy="71.6819" rx="3.93864" ry="3.77273" fill="#F2F2F2"/>
<ellipse cx="261.637" cy="94.3181" rx="3.93864" ry="3.77273" fill="#F2F2F2"/>
<ellipse cx="261.637" cy="116.955" rx="3.93864" ry="3.77273" fill="#F2F2F2"/>
<ellipse cx="261.637" cy="139.591" rx="3.93864" ry="3.77273" fill="#F2F2F2"/>
<ellipse cx="261.637" cy="162.227" rx="3.93864" ry="3.77273" fill="#F2F2F2"/>
<ellipse cx="285.27" cy="3.77273" rx="3.93864" ry="3.77273" fill="#F2F2F2"/>
<ellipse cx="285.27" cy="26.4092" rx="3.93864" ry="3.77273" fill="#F2F2F2"/>
<ellipse cx="285.27" cy="49.0454" rx="3.93864" ry="3.77273" fill="#F2F2F2"/>
<ellipse cx="285.27" cy="71.6819" rx="3.93864" ry="3.77273" fill="#F2F2F2"/>
<ellipse cx="285.27" cy="94.3181" rx="3.93864" ry="3.77273" fill="#F2F2F2"/>
<ellipse cx="285.27" cy="116.955" rx="3.93864" ry="3.77273" fill="#F2F2F2"/>
<ellipse cx="285.27" cy="139.591" rx="3.93864" ry="3.77273" fill="#F2F2F2"/>
<ellipse cx="285.27" cy="162.227" rx="3.93864" ry="3.77273" fill="#F2F2F2"/>
<ellipse cx="308.902" cy="3.77273" rx="3.93864" ry="3.77273" fill="#F2F2F2"/>
<ellipse cx="308.902" cy="26.4092" rx="3.93864" ry="3.77273" fill="#F2F2F2"/>
<ellipse cx="308.902" cy="49.0454" rx="3.93864" ry="3.77273" fill="#F2F2F2"/>
<ellipse cx="308.902" cy="71.6819" rx="3.93864" ry="3.77273" fill="#F2F2F2"/>
<ellipse cx="308.902" cy="94.3181" rx="3.93864" ry="3.77273" fill="#F2F2F2"/>
<ellipse cx="308.902" cy="116.955" rx="3.93864" ry="3.77273" fill="#F2F2F2"/>
<ellipse cx="308.902" cy="139.591" rx="3.93864" ry="3.77273" fill="#F2F2F2"/>
<ellipse cx="308.902" cy="162.227" rx="3.93864" ry="3.77273" fill="#F2F2F2"/>
<ellipse cx="332.532" cy="3.77273" rx="3.93864" ry="3.77273" fill="#F2F2F2"/>
<ellipse cx="332.532" cy="26.4092" rx="3.93864" ry="3.77273" fill="#F2F2F2"/>
<ellipse cx="332.532" cy="49.0454" rx="3.93864" ry="3.77273" fill="#F2F2F2"/>
<ellipse cx="332.532" cy="71.6819" rx="3.93864" ry="3.77273" fill="#F2F2F2"/>
<ellipse cx="332.532" cy="94.3181" rx="3.93864" ry="3.77273" fill="#F2F2F2"/>
<ellipse cx="332.532" cy="116.955" rx="3.93864" ry="3.77273" fill="#F2F2F2"/>
<ellipse cx="332.791" cy="139.773" rx="3.93864" ry="3.77273" fill="#F2F2F2"/>
<ellipse cx="332.532" cy="162.227" rx="3.93864" ry="3.77273" fill="#F2F2F2"/>
<ellipse cx="356.165" cy="3.77273" rx="3.93864" ry="3.77273" fill="#F2F2F2"/>
<ellipse cx="356.165" cy="26.4092" rx="3.93864" ry="3.77273" fill="#F2F2F2"/>
<ellipse cx="356.165" cy="49.0454" rx="3.93864" ry="3.77273" fill="#F2F2F2"/>
<ellipse cx="356.165" cy="71.6819" rx="3.93864" ry="3.77273" fill="#F2F2F2"/>
<ellipse cx="356.165" cy="94.3181" rx="3.93864" ry="3.77273" fill="#F2F2F2"/>
<ellipse cx="356.165" cy="116.955" rx="3.93864" ry="3.77273" fill="#F2F2F2"/>
<ellipse cx="356.165" cy="139.591" rx="3.93864" ry="3.77273" fill="#F2F2F2"/>
<ellipse cx="356.165" cy="162.227" rx="3.93864" ry="3.77273" fill="#F2F2F2"/>
<ellipse cx="379.797" cy="3.77273" rx="3.93864" ry="3.77273" fill="#F2F2F2"/>
<ellipse cx="379.797" cy="26.4092" rx="3.93864" ry="3.77273" fill="#F2F2F2"/>
<ellipse cx="379.797" cy="49.0454" rx="3.93864" ry="3.77273" fill="#F2F2F2"/>
<ellipse cx="379.797" cy="71.6819" rx="3.93864" ry="3.77273" fill="#F2F2F2"/>
<ellipse cx="379.797" cy="94.3181" rx="3.93864" ry="3.77273" fill="#F2F2F2"/>
<ellipse cx="379.797" cy="116.955" rx="3.93864" ry="3.77273" fill="#F2F2F2"/>
<ellipse cx="379.797" cy="139.591" rx="3.93864" ry="3.77273" fill="#F2F2F2"/>
<ellipse cx="379.797" cy="162.227" rx="3.93864" ry="3.77273" fill="#F2F2F2"/>
<ellipse cx="403.429" cy="3.77273" rx="3.93864" ry="3.77273" fill="#F2F2F2"/>
<ellipse cx="403.429" cy="26.4092" rx="3.93864" ry="3.77273" fill="#F2F2F2"/>
<ellipse cx="403.429" cy="49.0454" rx="3.93864" ry="3.77273" fill="#F2F2F2"/>
<ellipse cx="403.429" cy="71.6819" rx="3.93864" ry="3.77273" fill="#F2F2F2"/>
<ellipse cx="403.429" cy="94.3181" rx="3.93864" ry="3.77273" fill="#F2F2F2"/>
<ellipse cx="403.429" cy="116.955" rx="3.93864" ry="3.77273" fill="#F2F2F2"/>
<ellipse cx="403.429" cy="139.591" rx="3.93864" ry="3.77273" fill="#F2F2F2"/>
<ellipse cx="403.429" cy="162.227" rx="3.93864" ry="3.77273" fill="#F2F2F2"/>
<ellipse cx="427.061" cy="3.77273" rx="3.93864" ry="3.77273" fill="#F2F2F2"/>
<ellipse cx="427.061" cy="26.4092" rx="3.93864" ry="3.77273" fill="#F2F2F2"/>
<ellipse cx="427.061" cy="49.0454" rx="3.93864" ry="3.77273" fill="#F2F2F2"/>
<ellipse cx="427.061" cy="71.6819" rx="3.93864" ry="3.77273" fill="#F2F2F2"/>
<ellipse cx="427.061" cy="94.3181" rx="3.93864" ry="3.77273" fill="#F2F2F2"/>
<ellipse cx="427.061" cy="116.955" rx="3.93864" ry="3.77273" fill="#F2F2F2"/>
<ellipse cx="427.061" cy="139.591" rx="3.93864" ry="3.77273" fill="#F2F2F2"/>
<ellipse cx="427.061" cy="162.227" rx="3.93864" ry="3.77273" fill="#F2F2F2"/>
<ellipse cx="450.693" cy="3.77273" rx="3.93864" ry="3.77273" fill="#F2F2F2"/>
<ellipse cx="450.693" cy="26.4092" rx="3.93864" ry="3.77273" fill="#F2F2F2"/>
<ellipse cx="450.693" cy="49.0454" rx="3.93864" ry="3.77273" fill="#F2F2F2"/>
<ellipse cx="450.693" cy="71.6819" rx="3.93864" ry="3.77273" fill="#F2F2F2"/>
<ellipse cx="450.693" cy="94.3181" rx="3.93864" ry="3.77273" fill="#F2F2F2"/>
<ellipse cx="450.693" cy="116.955" rx="3.93864" ry="3.77273" fill="#F2F2F2"/>
<ellipse cx="450.693" cy="139.591" rx="3.93864" ry="3.77273" fill="#F2F2F2"/>
<ellipse cx="450.693" cy="162.227" rx="3.93864" ry="3.77273" fill="#F2F2F2"/>
<ellipse cx="3.93864" cy="3.77273" rx="3.93864" ry="3.77273" fill="#F2F2F2"/>
<ellipse cx="3.93864" cy="26.4092" rx="3.93864" ry="3.77273" fill="#F2F2F2"/>
<ellipse cx="3.93864" cy="49.0454" rx="3.93864" ry="3.77273" fill="#F2F2F2"/>
<ellipse cx="3.93864" cy="71.6819" rx="3.93864" ry="3.77273" fill="#F2F2F2"/>
<ellipse cx="3.93864" cy="94.3181" rx="3.93864" ry="3.77273" fill="#F2F2F2"/>
<ellipse cx="3.93864" cy="116.955" rx="3.93864" ry="3.77273" fill="#F2F2F2"/>
<ellipse cx="3.93864" cy="139.591" rx="3.93864" ry="3.77273" fill="#F2F2F2"/>
<ellipse cx="3.93864" cy="162.227" rx="3.93864" ry="3.77273" fill="#F2F2F2"/>
<ellipse cx="27.5705" cy="3.77273" rx="3.93864" ry="3.77273" fill="#F2F2F2"/>
<ellipse cx="27.5705" cy="26.4092" rx="3.93864" ry="3.77273" fill="#F2F2F2"/>
<ellipse cx="27.5705" cy="49.0454" rx="3.93864" ry="3.77273" fill="#F2F2F2"/>
<ellipse cx="27.5705" cy="71.6819" rx="3.93864" ry="3.77273" fill="#F2F2F2"/>
<ellipse cx="27.5705" cy="94.3181" rx="3.93864" ry="3.77273" fill="#F2F2F2"/>
<ellipse cx="27.5705" cy="116.955" rx="3.93864" ry="3.77273" fill="#F2F2F2"/>
<ellipse cx="27.5705" cy="139.591" rx="3.93864" ry="3.77273" fill="#F2F2F2"/>
<ellipse cx="27.5705" cy="162.227" rx="3.93864" ry="3.77273" fill="#F2F2F2"/>
<ellipse cx="51.2023" cy="3.77273" rx="3.93864" ry="3.77273" fill="#F2F2F2"/>
<ellipse cx="51.2023" cy="26.4092" rx="3.93864" ry="3.77273" fill="#F2F2F2"/>
<ellipse cx="51.2023" cy="49.0454" rx="3.93864" ry="3.77273" fill="#F2F2F2"/>
<ellipse cx="51.2023" cy="71.6819" rx="3.93864" ry="3.77273" fill="#F2F2F2"/>
<ellipse cx="51.2023" cy="94.3181" rx="3.93864" ry="3.77273" fill="#F2F2F2"/>
<ellipse cx="51.2023" cy="116.955" rx="3.93864" ry="3.77273" fill="#F2F2F2"/>
<ellipse cx="51.2023" cy="139.591" rx="3.93864" ry="3.77273" fill="#F2F2F2"/>
<ellipse cx="51.2023" cy="162.227" rx="3.93864" ry="3.77273" fill="#F2F2F2"/>
<ellipse cx="74.8342" cy="3.77273" rx="3.93864" ry="3.77273" fill="#F2F2F2"/>
<ellipse cx="74.8342" cy="26.4092" rx="3.93864" ry="3.77273" fill="#F2F2F2"/>
<ellipse cx="74.8342" cy="49.0454" rx="3.93864" ry="3.77273" fill="#F2F2F2"/>
<ellipse cx="74.8342" cy="71.6819" rx="3.93864" ry="3.77273" fill="#F2F2F2"/>
<ellipse cx="74.8342" cy="94.3181" rx="3.93864" ry="3.77273" fill="#F2F2F2"/>
<ellipse cx="74.8342" cy="116.955" rx="3.93864" ry="3.77273" fill="#F2F2F2"/>
<ellipse cx="74.8342" cy="139.591" rx="3.93864" ry="3.77273" fill="#F2F2F2"/>
<ellipse cx="74.8342" cy="162.227" rx="3.93864" ry="3.77273" fill="#F2F2F2"/>
<ellipse cx="98.467" cy="3.77273" rx="3.93864" ry="3.77273" fill="#F2F2F2"/>
<ellipse cx="98.467" cy="26.4092" rx="3.93864" ry="3.77273" fill="#F2F2F2"/>
<ellipse cx="98.467" cy="49.0454" rx="3.93864" ry="3.77273" fill="#F2F2F2"/>
<ellipse cx="98.467" cy="71.6819" rx="3.93864" ry="3.77273" fill="#F2F2F2"/>
<ellipse cx="98.467" cy="94.3181" rx="3.93864" ry="3.77273" fill="#F2F2F2"/>
<ellipse cx="98.467" cy="116.955" rx="3.93864" ry="3.77273" fill="#F2F2F2"/>
<ellipse cx="98.467" cy="139.591" rx="3.93864" ry="3.77273" fill="#F2F2F2"/>
<ellipse cx="98.467" cy="162.227" rx="3.93864" ry="3.77273" fill="#F2F2F2"/>
<ellipse cx="122.098" cy="3.77273" rx="3.93864" ry="3.77273" fill="#F2F2F2"/>
<ellipse cx="122.098" cy="26.4092" rx="3.93864" ry="3.77273" fill="#F2F2F2"/>
<ellipse cx="122.098" cy="49.0454" rx="3.93864" ry="3.77273" fill="#F2F2F2"/>
<ellipse cx="122.098" cy="71.6819" rx="3.93864" ry="3.77273" fill="#F2F2F2"/>
<ellipse cx="122.098" cy="94.3181" rx="3.93864" ry="3.77273" fill="#F2F2F2"/>
<ellipse cx="122.098" cy="116.955" rx="3.93864" ry="3.77273" fill="#F2F2F2"/>
<ellipse cx="122.098" cy="139.591" rx="3.93864" ry="3.77273" fill="#F2F2F2"/>
<ellipse cx="122.098" cy="162.227" rx="3.93864" ry="3.77273" fill="#F2F2F2"/>
<ellipse cx="145.73" cy="3.77273" rx="3.93864" ry="3.77273" fill="#F2F2F2"/>
<ellipse cx="145.73" cy="26.4092" rx="3.93864" ry="3.77273" fill="#F2F2F2"/>
<ellipse cx="145.73" cy="49.0454" rx="3.93864" ry="3.77273" fill="#F2F2F2"/>
<ellipse cx="145.73" cy="71.6819" rx="3.93864" ry="3.77273" fill="#F2F2F2"/>
<ellipse cx="145.73" cy="94.3181" rx="3.93864" ry="3.77273" fill="#F2F2F2"/>
<ellipse cx="145.73" cy="116.955" rx="3.93864" ry="3.77273" fill="#F2F2F2"/>
<ellipse cx="145.73" cy="139.591" rx="3.93864" ry="3.77273" fill="#F2F2F2"/>
<ellipse cx="145.73" cy="162.227" rx="3.93864" ry="3.77273" fill="#F2F2F2"/>
<ellipse cx="169.361" cy="3.77273" rx="3.93864" ry="3.77273" fill="#F2F2F2"/>
<ellipse cx="169.361" cy="26.4092" rx="3.93864" ry="3.77273" fill="#F2F2F2"/>
<ellipse cx="169.361" cy="49.0454" rx="3.93864" ry="3.77273" fill="#F2F2F2"/>
<ellipse cx="169.361" cy="71.6819" rx="3.93864" ry="3.77273" fill="#F2F2F2"/>
<ellipse cx="169.361" cy="94.3181" rx="3.93864" ry="3.77273" fill="#F2F2F2"/>
<ellipse cx="169.361" cy="116.955" rx="3.93864" ry="3.77273" fill="#F2F2F2"/>
<ellipse cx="169.361" cy="139.591" rx="3.93864" ry="3.77273" fill="#F2F2F2"/>
<ellipse cx="169.361" cy="162.227" rx="3.93864" ry="3.77273" fill="#F2F2F2"/>
<ellipse cx="192.993" cy="3.77273" rx="3.93864" ry="3.77273" fill="#F2F2F2"/>
<ellipse cx="192.993" cy="26.4092" rx="3.93864" ry="3.77273" fill="#F2F2F2"/>
<ellipse cx="192.993" cy="49.0454" rx="3.93864" ry="3.77273" fill="#F2F2F2"/>
<ellipse cx="192.993" cy="71.6819" rx="3.93864" ry="3.77273" fill="#F2F2F2"/>
<ellipse cx="192.993" cy="94.3181" rx="3.93864" ry="3.77273" fill="#F2F2F2"/>
<ellipse cx="192.993" cy="116.955" rx="3.93864" ry="3.77273" fill="#F2F2F2"/>
<ellipse cx="192.993" cy="139.591" rx="3.93864" ry="3.77273" fill="#F2F2F2"/>
<ellipse cx="192.993" cy="162.227" rx="3.93864" ry="3.77273" fill="#F2F2F2"/>
<ellipse cx="216.625" cy="3.77273" rx="3.93864" ry="3.77273" fill="#F2F2F2"/>
<ellipse cx="216.625" cy="26.4092" rx="3.93864" ry="3.77273" fill="#F2F2F2"/>
<ellipse cx="216.625" cy="49.0454" rx="3.93864" ry="3.77273" fill="#F2F2F2"/>
<ellipse cx="216.625" cy="71.6819" rx="3.93864" ry="3.77273" fill="#F2F2F2"/>
<ellipse cx="216.625" cy="94.3181" rx="3.93864" ry="3.77273" fill="#F2F2F2"/>
<ellipse cx="216.625" cy="116.955" rx="3.93864" ry="3.77273" fill="#F2F2F2"/>
<ellipse cx="216.625" cy="139.591" rx="3.93864" ry="3.77273" fill="#F2F2F2"/>
<ellipse cx="216.625" cy="162.227" rx="3.93864" ry="3.77273" fill="#F2F2F2"/>
</svg>
